<?xml version="1.0" ?>
<!-- Uploaded to: SVG Repo, www.svgrepo.com, Generator: SVG Repo Mixer Tools -->
<svg width="800px" height="800px" viewBox="0 0 500 500" enable-background="new 0 0 500 500" id="Layer_1" version="1.1" xml:space="preserve" xmlns="http://www.w3.org/2000/svg" xmlns:xlink="http://www.w3.org/1999/xlink">
<g>
<path d="M431.748,357.844c-0.807-36.948-22.587-252.788-40.883-298.518C386.59,48.64,375.881,47.48,359.86,48.151   c-42.587,1.784-77.215,6.214-125.635,24.175c-18.708,6.939-21.788,15.198-18.374,35.846c3.807,23.025,3.718,35.434,8.213,87.571   c1.629,18.889,6.757,22.759-25.383,30.693c-21.444,5.293-67.979,14.146-102.178,25.895c-26.135,8.979-30.904,18.404-27.188,49.02   c4.51,37.156,11.621,88.941,20.895,125.257c7.36,28.821,17.714,26.247,45.286,24.33c20.512-1.426,182.25-20.118,258.333-37.5   C424.106,404.915,432.523,393.308,431.748,357.844z" fill="#3F3756"/>
<path d="M75.588,270.592c-9.413,21.109,6.927,175.495,35.993,179.049c11.954,2.187,119.297-15.536,144.964-18.102   c38.203-8.947,163.499-10.447,171.668-52.146c-3.689-88.845-15.333-229.549-37.628-315.088   c-6.707-9.665-9.707-12.999-23.373-13.665c-13.667-0.667-55.664,2.333-87.832,11s-59.835,15.445-60.835,23.056   c-1.511,21.352,16.097,113.588,9.584,133.361C216.384,229.696,88.589,245.334,75.588,270.592z" fill="#9B7C37"/>
<path d="M411.931,186.771c-33.338,13.159-45.022,123.147-75.723,150.2c-24.768,28.257-39.201,63.278-20.68,86.762   c0,0,91.987-10.503,103.668-28.884C441.02,351.04,411.618,222.204,411.931,186.771z" fill="#7D5C21"/>
<path d="M107.128,286.218c0,0,9.5,114.37,27.25,122.479c26.652,3.946,261.447-14.119,260.399-50.357   c0.137-24.633-5.636-270.914-38.393-271.036c-22.507-0.748-102.278,9.897-106.392,17.45c-4.114,7.552,9.636,123.052,6.886,130.802   C238.921,254.595,119.682,264.806,107.128,286.218z" fill="#A7943F"/>
<path d="M387.219,216.353c0,0-17.987,56.329-28.539,83.016c-18.753,40.079-47.388,56.999-51.893,93.556   c0,0,75.389-5.963,85.24-27.416C401.878,344.056,387.219,216.353,387.219,216.353z" fill="#8A7627"/>
<path d="M357.969,89.869c-160.766,19.353-79.647,17.419-100.326,152.663   c-8.098,22.441-136.537,33.219-142.882,45.204s2.504,47.232,8.001,67.334c8.867,33.093,13.881,55.856,43.168,55.225   c0,0-28.222,6.263-35.804-5.696c-7.581-11.96-28.08-114.298-23.009-121.626c5.071-7.328,149.337-40.583,150.88-45   c1.543-4.417-11.494-120.792-10.744-126.792s6.725-12.548,22.05-13.399C284.628,96.931,357.969,89.869,357.969,89.869z" fill="#B9A95D"/>
<path d="M410.202,181.486c-7.474,5.13-17.727,8.212-23.689,14.646c-0.457-1.723-0.538-3.493-0.658-5.257   c0.303,1.14,0.681,1.563,1.919,0.719c5.552-4.784,18.869-9.209,21.783-15.056C410.178,178.134,409.781,179.863,410.202,181.486z" fill="#7D5C21"/>
<path d="M241.279,285.581c-1.31-10.647,11.471-14.071,19.788-14.943c10.461-0.998,13.22,11.584,14.012,19.789   c-0.016,0.907-0.062,2.324-1.264,2.414c-5.432-3.467-3.781-16.089-12.591-15.868c-15.448,1.04-15.638,6.492-11.913,19.742   c2.94,19.439,4.021,13.855,20.206,9.319c11.382-3.742,10.886,16.516,13.768,23.458c12.324,29.729-21.744,36.039-26.974,19.625   c-0.384-2.608-8.663-27.737-0.455-20.97c3.113,6.049,3.436,13.186,5.183,19.712c1.438,6.899,8.989,2.97,13.723,3.097   c7.155-0.805,5.701-10.685,3.888-15.73c-1.85-3.111-4.276-26.796-8.109-23.637C242.552,324.283,245.301,307.837,241.279,285.581z" fill="#DECB7A"/>
<path d="M315.871,255.034c2.975-0.382,3.876,3.61,0.878,4.669c-4.523,1.478-8.979,3.068-13.284,5.14   c-1.681,6.179,29.001,98.779,16.268,85.3c-8.132-15.955-8.598-34.823-15.431-51.42c-3.204-9.96-4.38-20.434-6.39-30.675   c-0.698-2.175-13.421,3.259-16.149,2.871c-7.859-3.064,5.157-6.636,8.135-7.222C298.948,262.083,306.752,256.215,315.871,255.034z" fill="#DECB7A"/>
<path d="M344.821,322.658c-6.504-19.23-10.628-39.188-13.162-59.313c0.291-3.783-3.696-11.312-0.091-13.593   c3.893,0.988,3.705,9.293,4.985,12.732c2.175,11.706,4.686,23.34,7.15,34.986C344.133,304.66,352.966,318.514,344.821,322.658z" fill="#DECB7A"/>
<path d="M344.821,322.658c1.624-1.555,2.908-3.336,3.653-5.477c0.089,0.013,0.177,0.02,0.267,0.021   c-0.603,3.948,3.974,11.098-0.338,13.372C345.214,330.307,345.914,324.945,344.821,322.658z" fill="#D0B65B"/>
<path d="M351.48,340.896c-1.701,6.886-6.474-4.643-3.182-5.921C350.806,335.08,350.715,339.09,351.48,340.896z" fill="#CFB65A"/>
<path d="M247.172,345.546c-2.59-14-9.014-66.775-27.402-65.509c-30.472,1.99-12.792,23.574-10.244,41.779   c3.051,8.607,10.992,46.322,21.004,45.286C244.966,367.544,250.859,359.215,247.172,345.546z M239.663,359.999   c-2.118,1.678-4.83,1.275-7.254,1.881c-3.011,0.752-3.153,0.716-4.531-2.132c-8.088-18.599-12.019-38.564-17.585-57.953   c-1.108-4.103-5.493-10.874-0.129-13.458c4.959-2.873,15.543-5.396,16.872,2.552c7.762,17.984,12.061,37.162,15.543,56.443   C243.378,351.831,244.99,357.916,239.663,359.999z" fill="#DECB7A"/>
<path d="M201.999,325.802c-7.717-21.257-7.369-42.895-36.288-30.991c-2.542,0.08-2.737-0.017-2.736,3.028   c5.328,25.717,12.247,51.25,21.73,75.808c0.413,3.123,5.176,7.96,6.319,2.649c-1.433-8.415-6.041-16.096-8.008-24.45   c-0.287-1.052-0.21-1.395,0.98-1.518C195.798,348.621,207.212,338.407,201.999,325.802z M196.584,334.368   c-0.832,7.14-9.021,8.096-14.67,9.792c-0.814,0.198-1.053-0.047-1.27-0.779c-4.48-14.161-7.945-28.626-12.48-42.761   c-0.292-0.865-0.185-1.196,0.796-1.451c5.829-1.987,15.211-5.762,17.807,2.38C190.025,312.384,195.721,323.057,196.584,334.368z" fill="#DECB7A"/>
<path d="M306.003,116.306l-16.375,48.312l0.875,1.813l16.284-3c1.733,9.414,6.832,43.863,11.341,51.875l14.5-4.5   l-8-49.125c0.788-1.792,20.623-5.241,18.75-8C342.878,151.056,309.378,116.556,306.003,116.306z" fill="#DECB7B"/>
<polygon fill="#D0B65B" points="325.849,170.306 313.968,203.659 315.711,210.889 326.96,176  "/>
<polygon fill="#D0B65B" points="327.711,180.615 316.717,213.389 317.544,215.306 332.628,210.806  "/>
<path d="M342.588,149.771c-10.497-12.733-22.355-24.9-35.46-34.886c-3.121-1.229-1.665,2.157-2.898,3.481   c-4.135,9.959-7.474,20.204-10.938,30.404c-0.514,4.486-10.605,21.514-0.166,18.729c2.576,0.089,13.029-5.079,13.064-1.495   c1.897,15.969,5.148,31.854,9.42,47.349c2.462,6.49,11.052,0.893,16.259-0.588c4.042-2.636-2.587-25.412-2.467-31.401   c0.224-4.838-5.266-16.627-2.649-19.62C331.998,158.003,350.176,160.169,342.588,149.771z M340.421,154.914   c-17.911,4.019-19.77,2.746-14.572,21.623c0,0,0,0,0,0c0.137,0.686,0.275,1.372,0.412,2.058c0,0,0,0,0,0   c0.532,3.698,8.073,33.602,3.224,32.467c-5.672,0.177-11.911,7.239-12.769-2.221l0,0l0,0c-0.529-1.697-0.937-3.421-1.189-5.182h0   c-2.995-12.954-5.886-25.953-7.241-39.202c-0.273-5.305-12.065,0.171-15.535,0.298c-1.613,0.427-1.753,0.3-1.245-1.253   c4.911-15.231,10.384-30.297,14.43-45.773c8.38,5.586,15.448,12.945,22.043,20.551C329.468,141.53,344.781,152.917,340.421,154.914   z" fill="#3F3756"/>
<path d="M431.748,357.844c-0.807-36.948-22.587-252.788-40.883-298.518C386.59,48.64,375.881,47.48,359.86,48.151   c-42.587,1.784-77.215,6.214-125.635,24.175c-18.708,6.939-21.788,15.198-18.374,35.846c3.807,23.025,3.718,35.434,8.213,87.571   c1.629,18.889,6.757,22.759-25.383,30.693c-21.444,5.293-67.979,14.146-102.178,25.895c-26.135,8.979-30.904,18.404-27.188,49.02   c4.51,37.156,11.621,88.941,20.895,125.257c7.36,28.821,17.714,26.247,45.286,24.33c20.512-1.426,182.25-20.118,258.333-37.5   C424.106,404.915,432.523,393.308,431.748,357.844z M398.374,115.877c4.581,22.127,6.464,44.695,9.101,67.065   c-0.225,4.397,4.489,24.167,1.593,25.438c-31.79,8.173-10.78,17.247-29.686-80.344c-0.307-2.952,12.652-7.751,15.51-10.847   C395.87,116.869,397.966,114.142,398.374,115.877z M390.762,344.97c1.572,42.022-54.5,36.152-83.124,43.462c0,0,0,0,0,0   c-53.963,6.149-107.841,14.947-162.006,18.586c-17.735,2.543-17.291-18.602-20.766-30.638   c-4.882-22.463-8.508-45.194-11.884-67.924c0.281-7.81-7.206-22.145,2.077-26.093c30.245-13.527,64.099-16.735,95.885-25.564   c49.18-13.259,55.867-3.319,49.17-59.891c0,0,0,0,0,0c-11.906-113.378-31.257-89.255,71.343-103.465   c22.256-1.694,35.94-12.077,37.66,18.706C379.244,189.354,390.884,266.993,390.762,344.97z M391.22,84.695   c6.095,32.286,14.256,25.151-11.371,39.842c-2.288,1.561-4.179-18.45-5.827-21.317c-0.237-0.914-0.026-1.465,0.622-2.112   C380.246,95.756,385.472,89.77,391.22,84.695z M386.515,69.326c0.953,4.151,5.215,10.75,3.286,14.265   c-5.602,5.426-10.832,11.113-16.483,16.461c-0.223-2.998-2.744-5.777-2.269-8.486C376.278,84.183,381.117,76.587,386.515,69.326z    M270.812,68.925c9.597-4.522,114.243-23.505,108.968-8.295c-4.163,8.677-8.376,17.37-11.485,26.493   c0.164,0.068,0.328,0.135,0.492,0.202c4.827-9.254,8.548-19.032,13.077-28.535c2.938,4.104,5.264,8.787,1.004,13.02   c-5.115,5.79-8.98,12.433-12.869,19.117c-5.617-11.243-18.483-7.032-28.369-5.889c-16.199,1.995-32.359,4.304-48.529,6.52   c-3.328-0.271-11.188,3.245-13.039,0.657C279.293,88.623,267.811,69.387,270.812,68.925z M222.488,88.853   c8.744-12.678,30.418-13.592,44.182-18.855c3.089-1.405,8.836,18.385,11.604,21.68c0.783,1.352,0.869,2.111-0.834,2.26   c-48.849,4.293-14.898,20.031-48.626-8.283c-4.955-1.877,6.656,8.122,7.489,8.908c3.175,2.912,6.251,5.931,9.377,8.897   c1.051,1.162-0.496,2.492-0.763,3.907c-7.417-5.626-14.699-11.159-21.998-16.67C222.208,90.16,222.184,89.587,222.488,88.853z    M224.46,117.437c-0.953-8.906-3.214-17.104-2.589-26.258c7.106,5.817,14.025,11.216,21.655,16.231   c0.865,0.576,1.32,1.216,1.049,2.23c-1.371,2.695,2.648,16.502-0.541,15.991C239.465,123.143,225.92,121.879,224.46,117.437z    M123.881,251.616c138.506-32.6,107.604-14.272,102.295-130.154c3.837,2.899,19.685,4.423,19.39,8.188   c1.251,27.196,6.183,54.042,8.411,81.151c1.828,21.177,3.676,27.687-19.978,31.615c-34.445,9.079-69.344,16.472-103.355,27.145   c-7.071,4.31-14.543-10.335-20.816-14.311C114.71,253.987,119.293,252.791,123.881,251.616z M108.196,255.844   c5.921,4.207,10.414,11.172,16.761,15.39c-3.194,0.639-5.865,3.017-8.495,2.24c-5.973-4.642-12.646-8.793-18.249-13.707   C101.471,258.281,104.818,257.024,108.196,255.844z M95.889,260.66c6.78,3.142,13.034,9.572,19.505,13.807   c-4.183,2.12-18.392-9.734-23.643-11.958C93.249,261.839,94.568,261.247,95.889,260.66z M75.618,285.974   c-0.116-3.885,23.038,2.994,27.063,1.182c-7.834-3.503-17.388-2.862-25.922-3.792c-2.434-0.472,0.093-6.613,0.247-8.55   c1.84-5.982,7.99-9.853,13.533-11.571c7.213,3.464,13.628,9.529,21.649,12.401c-12.079,4.301-6.05,15.267-10.967,14.464   c-7.594-0.566-15.201-0.169-22.801-0.269C75.079,290.165,75.725,288.68,75.618,285.974z M81.001,332.312   c-1.528-13.324-3.448-26.788-5.06-40.054c-0.016-0.807-0.013-1.284,0.805-1.123c36.265,2.735,23.47-6.253,30.124,28.702   c-0.199,2.185,2.418,7.27,0.49,8.326C102.535,327.043,80.385,336.065,81.001,332.312z M81.985,340.461   c0.338-1.751-1.816-4.897,0.375-5.691c4.529-0.002,25.353-7.626,26.435-3.911c0.051,1.018,0.832,2.434-0.45,2.767   C103.858,334.32,83.608,343.32,81.985,340.461z M92.648,407.808c-4.387-21.139-7.379-42.514-10.168-63.909   c-0.181-1.18-0.169-1.587,1.236-1.821c8.491-1.414,16.686-3.929,24.699-7.044c0.757-0.294,1.126-0.564,1.329,0.636   c3.286,19.898,6.838,39.77,11.956,59.296c0.218,0.858,0.12,1.323-0.64,1.899c-9.104,6.928-17.356,14.226-26.236,21.555   C94.06,414.701,93.345,411.256,92.648,407.808z M97.679,430.546c-0.098-3.649-3.616-8.272-1.496-11.427   c9.022-6.769,17.648-14.02,26.105-21.715c0.291,2.826,3.266,6.191,1.73,8.558c-5.129,4.61-9.839,9.648-14.732,14.499   C107.414,421.413,97.914,434.186,97.679,430.546z M122.674,444.808c-0.963-0.477-4.921,0.944-3.651-1.074   c5.255-9.016,13.056-17.712,16.025-27.519c-6.378,7.752-10.907,17.246-16.324,25.784c-1.789,3.099-1.966,3.023-6.069,2.793   c-6.025,0.072-13.991-6.724-13.536-12.105c8.32-8.59,17.9-15.941,25.61-25.105c0.805-0.993,0.967-0.541,1.383,0.166   c2.814,6.418,9.616,6.928,15.796,7.852c-5.374,8.844-10.51,17.466-15.083,26.695C125.889,444.163,124.819,445.135,122.674,444.808z    M164.552,437.252c-0.266,1.468,0.628,4.191-1.497,4.505c-12.062,1.764-23.7,2.583-36.01,2.756   c5.301-9.424,10.484-18.436,15.724-27.821c0.465-0.834,0.938-1.146,1.872-1.116C172.017,415.679,166.019,406.968,164.552,437.252z    M175.333,439.878c-1.902-0.251-9.574,2.725-9.381,0.24c0.867-8.094,2.337-16.28,1.836-24.425c-0.931-2.416,2.13-1.665,3.529-1.984   c2.635-0.225,2.541-0.221,2.675,2.493c0.354,7.449,0.774,14.921,2.054,22.283C176.171,439.085,176.211,439.747,175.333,439.878z    M281.805,425.046c-2.666-0.311-7.604,2.677-9.147,0.109c-1.773-7.665-2.658-16.139-4.478-23.465   c-2.867,1.916,1.736,18.059,2.275,22.039c0.676,2.676,0.575,2.777-2.132,3.163c-62.94,8.822-20.416,2.258-89.991,12.492   c-0.748,0.182-1.004-0.311-1.046-1.366c-0.259-6.573-0.58-13.143-0.912-19.713c0.323-1.506-1.413-4.598,0.263-5.195   c32.384-4.115,64.663-9.031,97.104-12.693c2.496-0.352,2.743-0.28,3.51,2.113c2.251,7.025,3.684,14.255,5.359,21.425   C282.77,424.648,282.554,424.946,281.805,425.046z M325.815,418.316c-52.787,6.585-35.362,15.016-48.005-18.352   c20.259-2.211,38.351-5.367,39.15-4.106c2.751,7.297,6.019,14.37,9.348,21.416C326.583,417.85,326.587,418.195,325.815,418.316z    M383.952,407.247c-18.376,3.834-36.77,7.671-55.312,10.612c-3.28-4.016-4.686-10.412-7.286-15.235   c-0.219-1.991-4.964-7.922-2.047-8.377c19.406-3.187,38.913-6.599,57.609-12.815c2.02-1.911,3.944,14.297,5.496,16.507   C382.451,400.145,386.823,406.671,383.952,407.247z M391.09,405.483c-1.279-0.133-4.122,2.082-4.686,0.091   c-2.339-7.938-4.667-15.878-7.054-23.801c-0.329-1.091,0.302-1.305,1.008-1.649c2.345-1.141,2.314-1.142,3.164,1.337   c2.589,7.551,4.969,15.181,8.285,22.462C392.21,404.81,392.107,405.273,391.09,405.483z M421.726,379.612   c-1.661,13.904-14.566,21.998-27.152,24.899c-1.039,0.343-1.332-0.379-1.616-1.121c-3.058-7.923-6.016-15.886-9.092-23.802   c-0.359-2.246,3.609-3.093,4.587-5.134c0.589-0.662,1.129-0.687,1.846-0.231c8.944,5.177,17.777,11.864,27.207,15.59   c-8.35-6.059-17.241-11.356-26.212-16.478c-0.784-0.427-0.909-0.77-0.317-1.477c1.592-0.993,2.928-5.331,4.691-4.724   c8.401,3.786,16.805,7.564,25.224,11.307C421.403,378.667,421.887,378.793,421.726,379.612z M423.657,363.517   c-0.611,2.162,0.152,14.569-2.744,13.236c-7.776-4.273-15.758-8.113-24.047-11.294c-1.978-0.968,1.611-4.2,1.332-6.108   c1.536-2.513,11.127,0.807,14.412,0.489C415.563,361.097,424.666,358.814,423.657,363.517z M423.68,353.566   c-0.496,2.302,1.228,6.498-1.162,6.471c-7.382-1.351-14.868-2.011-22.315-2.859c0.096-42.859-2.182-90.372-8.767-133.93   c0.287-2.38-2.078-6.539,0.486-7.798c20.726-3.769,18.011-13.755,20.177,9.122C415.682,267.494,422.314,310.544,423.68,353.566z" fill="#3F3756"/>
</g>
</svg>